# xmcd
#
# Track frame offsets: 
#        150
#        17253
#        31100
#        46244
#        63590
#        78922
#        94703
#        109367
#        124733
#        140173
#
# Disc length: 2040 seconds
#
# Revision: 0
# Processed by: cddbd v1.5.2PL0 Copyright (c) Steve Scherf et al.
# Submitted via: ExactAudioCopy v1.0b4
#
DISCID=7c07f60a
DTITLE=John 'Lonely Stranger' Pihel - Endless Love Stories
DYEAR=2015
DGENRE=Blues Rock
TTITLE0=Not Matter Elisia 2
TTITLE1=Autumn Rain
TTITLE2=Just To Be Mine
TTITLE3=Rest Your Head
TTITLE4=It's All Right
TTITLE5=Come Together
TTITLE6=Without You
TTITLE7=That Same Dream Each Night
TTITLE8=The Dark Days
TTITLE9=I Need Not Go
EXTD=
EXTT0=
EXTT1=
EXTT2=
EXTT3=
EXTT4=
EXTT5=
EXTT6=
EXTT7=
EXTT8=
EXTT9=
PLAYORDER=
